<?xml version="1.0" encoding="UTF-8" standalone="no"?>
<svg width="890px" height="651px" viewBox="0 0 890 651" version="1.1" xmlns="http://www.w3.org/2000/svg" xmlns:xlink="http://www.w3.org/1999/xlink" xmlns:sketch="http://www.bohemiancoding.com/sketch/ns">
    <!-- Generator: Sketch 3.2.2 (9983) - http://www.bohemiancoding.com/sketch -->
    <title>crown</title>
    <desc>Created with Sketch.</desc>
    <defs></defs>
    <g id="Page-1" stroke="none" stroke-width="1" fill="none" fill-rule="evenodd" sketch:type="MSPage">
        <g id="Group" sketch:type="MSLayerGroup">
            <path d="M435.323236,650.259055 C336.35371,650.259055 237.384185,650.129735 138.420809,650.320636 C130.739647,650.332952 127.252683,648.799583 125.063336,640.418395 C103.132974,556.280138 80.501528,472.320466 58.2144739,388.268422 C39.5804304,317.985913 21.1308824,247.654138 2.62598567,177.340838 C1.94335239,174.735957 1.48211369,172.069496 0.990125745,169.41535 C-0.571935989,161.00953 2.97652708,159.716327 9.75981091,163.22645 C14.1754027,165.511109 18.5110465,167.974353 22.8774396,170.357541 C19.18753,174.07704 15.1409291,171.496792 9.77826046,170.123533 C28.4184538,191.652286 44.6848054,213.094825 62.5685673,233.11484 C84.6834255,257.876601 104.578188,284.424213 125.961214,309.764836 C147.085947,334.803711 168.881013,359.27604 189.286213,384.930727 C195.368414,392.572941 199.052174,392.246561 204.002803,383.643682 C221.308479,353.567472 238.663353,323.509737 255.796834,293.32884 C257.918532,289.590867 257.863183,285.083131 260.175526,281.431372 C264.843262,281.086517 266.251578,277.059114 268.231829,273.949268 C321.65557,190.088126 375.005513,106.177719 428.386206,22.2857859 C431.89162,16.7804355 435.366285,11.2442946 439.22839,5.99758487 C441.104094,3.44812732 442.07577,-1.63847155 447.327742,1.37284425 C448.797556,8.94116146 449.215746,16.5649017 449.209596,24.2810135 C449.129648,100.093506 449.166547,175.905998 449.141947,251.718491 C449.141947,257.864285 449.44329,264.034711 448.447014,270.13124 C444.006823,281.536059 434.222413,289.504654 428.872044,300.355244 C424.235058,307.874296 420.391402,316.009159 413.09153,321.551458 C402.999628,320.652374 403.202573,311.144252 398.694733,304.136323 C392.501835,321.243553 381.462855,333.104073 363.898886,338.707953 C373.91084,341.953277 383.252461,345.130862 387.274463,355.587332 C387.010019,366.653456 379.790096,374.080137 373.52955,382.011783 C365.75614,392.117241 354.913956,400.270579 353.210447,414.200224 C364.341675,432.976301 377.447004,450.403752 389.476109,468.545545 C405.545665,492.790024 422.931289,516.147735 438.232115,540.92797 C440.642856,547.338562 446.362215,551.883247 448.157971,558.65101 C450.070575,585.777485 448.816005,612.910118 448.871354,640.036592 C448.877504,643.49745 448.280968,646.915201 445.648833,649.563188 C442.204917,649.803355 438.767152,650.259055 435.323236,650.259055 Z" id="Shape" fill="#FEBB14" sketch:type="MSShapeGroup"></path>
            <path d="M444.984649,274.842194 C445.144545,210.496102 445.316741,146.156169 445.458188,81.8100773 C445.507386,58.6925323 445.433588,35.5749873 445.556585,12.4574423 C445.581185,8.72562761 444.406563,4.68590743 447.327742,1.37284425 C466.699767,27.2492225 482.560229,55.4225759 500.038101,82.5367343 C541.500385,146.845877 582.482981,211.462926 623.668522,275.950654 C625.310532,278.524744 626.804945,281.345158 630.408757,281.591482 C639.774977,301.593024 653.851983,318.607882 665.856489,336.915943 C675.136611,351.073438 684.256838,365.360253 694.182695,379.111313 C698.758183,385.454166 701.906905,385.952973 707.195776,379.468483 C749.06395,328.189901 791.461012,277.348545 832.867947,225.68816 C848.494714,206.185425 865.320702,187.637198 880.996668,168.140622 C883.124516,165.498792 885.178566,162.388947 889.446561,163.577462 C889.538809,181.201973 882.614079,197.379328 878.290735,213.95696 C847.04335,333.86152 815.180981,453.599811 783.189464,573.307312 C777.347107,595.174761 772.900766,617.460961 764.924412,638.737231 C758.018131,646.207019 749.389892,649.156753 739.365638,648.74416 C734.37811,648.534784 729.212236,647.912815 724.390755,648.84269 C704.655888,652.660718 693.992049,641.434483 684.453633,626.618071 C655.715387,581.971773 625.169085,538.532465 594.942576,494.902255 C580.920919,474.660548 567.766391,453.815345 553.006753,434.072445 C548.880204,428.54862 543.376089,424.077832 540.411862,417.685714 C539.723078,415.610431 539.144993,413.492041 538.271714,411.472181 C523.610473,387.141488 507.510168,363.820726 489.829351,341.602265 C479.171662,331.853976 473.642947,318.472403 465.832639,306.75352 C459.424495,297.14071 452.794958,287.934336 444.750955,279.700943 C443.889976,278.038253 444.265117,276.430986 444.984649,274.842194" id="Shape" fill="#F59220" sketch:type="MSShapeGroup"></path>
            <path d="M542.465911,415.770542 C571.321004,452.965526 597.267219,492.260426 623.496326,531.265895 C644.639508,562.709205 684.565683,597.899109 703.236503,631.023582 C718.106839,657.417242 764.426151,637.622552 764.924412,638.743328 C763.78669,645.751257 761.265251,650.141989 752.606263,650.123515 C651.041501,649.871032 549.476739,649.97572 447.911978,649.963404 C447.155546,649.963404 446.399115,649.704763 445.648833,649.563127 C445.464337,618.138291 445.285992,586.707298 445.101496,555.282463 C445.181444,554.746707 445.261392,554.210951 445.335191,553.669038 C451.312844,541.088019 460.48227,530.569967 467.997385,518.986562 C477.20986,504.78596 486.705227,490.720837 496.932427,477.191469 C509.45352,459.499219 520.646246,440.901727 533.55478,423.486592 C535.891722,420.33364 542.465911,415.77048 542.465911,415.77048 L542.465911,415.770542 Z" id="Shape" fill="#E48A26" sketch:type="MSShapeGroup"></path>
            <path d="M257.408094,296.494109 C240.336112,326.440998 223.055036,356.264725 205.890806,386.162349 C200.0177,396.378653 195.257717,396.951357 187.902497,388.151418 C136.514356,326.687322 85.0831657,265.260175 33.7749726,203.734498 C23.8183665,191.80008 11.6028519,182.122292 0.889814363,168.728403 C0.889814363,168.132851 0.577809755,167.089106 0.577809755,166.493554 C0.577809755,165.914962 0.577809755,163.722687 0.577809755,163.722687 C0.577809755,163.722687 1.99996458,160.480143 3.64828107,161.197346 C4.73794739,161.10009 6.21739869,161.797537 6.73140976,161.924632 C8.25466573,162.301276 9.36565098,163.091299 11.1013725,163.722687 C12.7909768,164.3373 16.5265402,166.703823 19.4343641,168.419333 C22.342188,170.134842 20.8842127,169.6269 21.3878209,169.502768 C79.2640531,196.524555 138.629904,224.376482 196.487687,251.42906 C217.747716,261.368249 238.952396,271.424443 260.181676,281.431372 C263.109005,287.152256 260.003331,291.943265 257.408094,296.494109 Z" id="Shape" fill="#5BAADE" sketch:type="MSShapeGroup"></path>
            <path d="M889.446561,163.58362 C874.010439,178.067495 862.14738,195.642741 848.537763,211.684618 C813.545121,252.931638 779.610252,295.077743 745.318692,336.922101 C732.668452,352.360483 720.128909,367.885078 707.706213,383.502045 C703.130725,389.25372 699.711409,392.117241 694.231893,383.846899 C673.888192,353.130247 652.991004,322.78308 632.413608,292.226538 C630.334959,289.129009 627.942667,285.717416 630.408757,281.591482 C708.917734,244.556609 787.42671,207.527893 865.923387,170.468387 C871.470552,167.845032 876.820921,164.815242 882.392684,162.24731 C884.821875,161.126534 887.982897,158.558602 889.446561,163.58362" id="Shape" fill="#4980C2" sketch:type="MSShapeGroup"></path>
            <path d="M374.851767,452.128023 C366.629419,439.362261 356.593965,429.081563 351.661786,414.23436 C353.1193,413.095109 353.628637,412.204996 355.307546,412.882388 C370.829766,433.746065 385.946095,454.911489 400.367492,478.995857 C408.817385,458.563248 423.029687,443.814575 433.908771,426.7874 C436.627004,422.544463 442.139808,412.087576 450.712698,418.325742 C451.266184,419.538889 448.324017,422.630676 448.533112,423.936196 C448.932852,464.327239 450.427266,504.699808 447.782831,545.041587 C445.74084,547.648489 446.982627,553.370162 446.037903,553.489142 C445.455467,553.562496 443.5714,550.393372 441.527653,548.195257 C435.336428,541.536393 436.735566,543.231553 427.076292,531.357677 C406.683391,501.66327 394.34679,482.40745 374.851767,452.128023 Z" id="Shape" fill="#3A97D3" sketch:type="MSShapeGroup"></path>
            <path d="M386.462683,356.775848 C395.613659,360.846358 395.828903,370.336006 399.199021,377.116085 C399.358917,372.251178 400.87178,367.306216 406.031503,364.159422 C413.202228,363.131017 417.002835,367.675702 420.87109,372.66993 C429.929818,384.376497 435.692227,398.380039 446.343766,408.978146 C446.768106,410.222085 446.823454,411.466023 446.522112,412.753068 C446.18387,413.325772 445.839478,413.880002 445.488937,414.452706 C444.369664,415.284051 443.158144,415.869071 441.829776,416.257032 C414.389149,417.353176 386.954671,418.467794 359.557092,415.659696 C358.1153,414.626134 355.95184,415.568555 355.243838,414.452709 C354.169878,412.760094 354.988367,408.957748 355.243838,407.094144 C355.520363,405.076959 356.448937,402.966086 357.755186,400.775544 C361.863285,393.903093 367.834789,388.379268 371.561598,381.254335 C376.223184,372.910096 383.043367,365.883692 386.462683,356.775848 Z" id="Shape" fill="#3EA4DC" sketch:type="MSShapeGroup"></path>
            <path d="M429.314833,390.602346 C423.060436,380.835584 418.607945,369.418448 406.369745,365.033873 C405.299671,353.173353 414.653592,348.85036 422.304005,343.708338 C427.660524,340.112002 434.222413,338.97891 440.667455,338.085984 C442.10037,337.550228 440.538308,335.708953 441.061045,337.162267 C441.239391,337.648758 440.962648,337.913557 440.243115,337.96898 C428.189411,338.824957 416.584645,331.632284 412.845537,320.99107 C417.390275,313.940034 421.935014,306.895157 426.479753,299.844121 C427.854509,298.735545 431.331111,294.389551 432.697019,293.123528 C435.944363,290.113653 436.940911,289.850604 439.157348,286.222381 C440.575752,283.903644 444.02154,279.243474 445.694045,279.145272 C447.139715,279.060389 446.000748,283.707068 447.586035,286.222381 C450.771657,302.676851 448.877504,319.316064 449.209596,335.844432 C449.615486,355.882922 449.184996,375.95836 448.957452,396.015325 C448.908253,400.572326 449.240345,405.400284 445.206044,408.8673 C436.540906,405.714348 433.718125,397.480955 429.314833,390.602346 Z" id="Shape" fill="#71B8E6" sketch:type="MSShapeGroup"></path>
            <path d="M412.845537,320.984912 C419.585771,331.238165 431.05524,333.799939 442.653856,338.68332 C427.334582,344.317991 412.29205,348.671775 406.363595,365.027715 C402.009502,369.627823 402.470741,376.407902 398.393391,382.947815 C395.097071,373.033258 392.052896,364.245635 386.450383,356.76969 C380.337433,346.294744 369.482949,343.240322 355.694987,338.855748 C378.560126,332.451313 392.071345,319.821029 397.366366,298.415439 C405.330421,305.004617 403.30712,317.068354 412.845537,320.984912" id="Shape" fill="#FEFCF9" sketch:type="MSShapeGroup"></path>
            <path d="M366.352675,392.141874 C360.903909,398.121398 356.082427,404.5012 357.570691,413.418144 C356.881907,414.317228 356.21498,416.24554 355.323252,415.500409 C353.785789,415.420353 356.136289,417.799726 354.598827,417.713513 C354.045515,417.319792 351.575821,415.694819 351.575821,413.707575 C351.575821,410.434314 353.179006,405.991255 354.057513,404.76718 C355.755364,402.404702 357.569556,399.661863 359.24066,397.043571 C362.055112,392.633876 364.463696,388.577457 365.227066,387.286352 C365.801079,386.315511 367.486243,385.307405 368.511406,384.350801 C369.659088,383.279871 370.187733,382.264303 371.561598,381.254335 C372.145834,386.008396 369.249255,388.964289 366.352675,392.141874 Z" id="Shape" fill="#3A97D3" sketch:type="MSShapeGroup"></path>
            <path d="M445.384389,279.195978 C443.365882,280.980202 443.227544,282.385867 443.227544,282.385867 C443.227544,282.385867 429.418711,299.960549 426.485902,299.850279 C431.47958,290.643904 436.245713,281.265103 444.984649,274.842194 C445.119946,276.295508 445.249093,277.748822 445.384389,279.195978 C444.924947,279.498155 442.898108,281.183369 443.227544,282.385867 C441.654526,283.192798 446.187395,278.486175 445.384389,279.195978 Z" id="Shape" fill="#F79873" sketch:type="MSShapeGroup"></path>
            <path d="M445.556585,413.645994 C445.470487,412.900862 445.525836,412.161889 445.728781,411.435232 C448.834455,398.195296 458.102278,388.391585 465.715791,378.009011 C474.823718,365.588103 482.793923,352.502119 491.403712,339.797938 C503.303671,350.303674 510.388297,364.541224 519.139533,377.319303 C526.60545,388.225316 536.629704,397.795019 540.387262,411.11501 C539.809176,417.254646 534.606404,416.842053 530.867295,416.946741 C505.591415,417.661081 480.297084,417.500971 455.008904,417.082219 C451.552688,417.026796 448.108773,416.441776 445.556585,413.645994" id="Shape" fill="#3A98D3" sketch:type="MSShapeGroup"></path>
            <path d="M528.475004,413.504357 C532.515455,413.485883 537.023295,414.914564 540.381112,411.11501 C542.238367,412.143415 542.558159,413.867686 542.465911,415.770542 C527.82927,436.578795 513.186478,457.387049 498.549837,478.195303 C491.600507,481.225093 478.959044,502.644954 474.088364,495.747871 C461.813264,478.338894 458.957107,437.403982 445.78413,420.62929 C445.575035,419.834894 445.36594,419.046656 445.162995,418.25226 C443.963774,416.626519 444.105221,415.031568 445.249093,413.455092 L445.556585,413.645994 C473.194008,413.621361 500.831431,413.645994 528.475004,413.504357 Z" id="Shape" fill="#3FA3DB" sketch:type="MSShapeGroup"></path>
            <path d="M491.409862,339.797938 C491.90185,350.913327 483.039917,357.428607 477.984741,365.538838 C468.108083,381.383655 456.577115,396.19391 445.734931,411.435232 C445.562735,410.579255 445.384389,409.723278 445.212194,408.861142 C445.218343,367.19537 445.230643,325.529597 445.236793,283.857667 C445.285992,282.305823 445.34134,280.747821 445.390539,279.18982 C450.335018,279.245243 452.432117,282.792314 454.861307,286.394808 C466.933462,304.271802 479.208561,322.007159 491.409862,339.797938" id="Shape" fill="#5CABDE" sketch:type="MSShapeGroup"></path>
            <path d="M462.932143,424.977511 C466.512177,436.70145 471.087544,439.488503 474.811523,444.674414 C476.883335,447.559562 487.736881,454.346287 489.845124,460.686117 C492.249715,467.915738 496.096047,471.476805 498.555987,478.195303 C481.459406,503.923887 465.045458,530.114328 445.851778,554.38344 C445.445888,552.23426 445.039998,550.091237 444.627958,547.942057 C444.904701,514.76216 445.175295,481.588422 445.464337,448.414683 C445.540989,440.169015 445.651762,431.923347 445.74892,423.67768 C445.760893,422.66155 445.73745,414.948174 445.74892,413.932045 C451.818822,414.560172 461.597625,420.599094 462.932143,424.977511 Z" id="Shape" fill="#4980C2" sketch:type="MSShapeGroup"></path>
            <path d="M445.167703,418.85573 C428.322606,438.898067 411.515026,458.964809 400.853968,483.51591 C397.702546,482.979007 395.859646,483.279025 393.893688,480.551066 C384.899156,468.07028 374.200631,452.470601 365.651679,438.627274 C364.5698,436.875385 362.953218,435.509165 362.116894,434.291 C359.650067,430.697893 358.478009,427.987131 355.047321,423.732785 C353.969049,422.395635 353.011274,417.70815 351.712626,414.066313 C350.224118,414.066313 355.302174,414.163932 356.102535,414.066313 C385.822188,414.078515 419.546728,414.054111 449.266381,414.066313 C449.235117,415.652617 448.321296,416.05247 445.167703,418.85573 Z" id="Shape" fill="#4B81C2" sketch:type="MSShapeGroup"></path>
        </g>
    </g>
</svg>